<svg width="2160" height="870" viewBox="0 0 2160 870" fill="none" xmlns="http://www.w3.org/2000/svg">
<g id="confettee" clip-path="url(#clip0_333_23544)">
<path id="Fill 6" fill-rule="evenodd" clip-rule="evenodd" d="M1766.56 30.3207C1766.11 32.582 1764.69 34.6295 1762.49 35.7767C1758.66 37.785 1753.92 36.2885 1751.93 32.4374C1750.04 28.7941 1746.84 26.1052 1742.94 24.8707C1739.04 23.6332 1734.89 24.0005 1731.26 25.8975C1727.62 27.7974 1724.95 31.0012 1723.71 34.9155C1722.49 38.8479 1722.84 43.0031 1724.74 46.6465C1726.74 50.5006 1725.24 55.246 1721.41 57.2483C1717.57 59.2537 1712.84 57.7572 1710.84 53.9091C1707.02 46.5351 1706.28 38.1102 1708.78 30.1942C1711.26 22.2692 1716.68 15.7894 1724.02 11.9534C1731.36 8.11734 1739.75 7.37964 1747.65 9.87578C1755.54 12.3749 1761.99 17.8068 1765.82 25.1748C1766.67 26.8219 1766.89 28.6345 1766.56 30.3207" fill="#EF7FA6"/>
<path id="Fill 7" fill-rule="evenodd" clip-rule="evenodd" d="M1437.5 603.767C1435.12 603.767 1432.78 602.689 1431.24 600.642C1420.95 586.947 1423.67 567.403 1437.31 557.078C1443.92 552.074 1452.07 549.96 1460.27 551.098C1468.47 552.251 1475.73 556.536 1480.71 563.169C1483.32 566.638 1482.63 571.564 1479.18 574.178C1475.72 576.794 1470.81 576.105 1468.21 572.639C1465.74 569.36 1462.15 567.24 1458.1 566.668C1454.06 566.108 1450.02 567.153 1446.75 569.628C1440 574.735 1438.66 584.4 1443.74 591.172C1446.35 594.638 1445.66 599.567 1442.21 602.18C1440.8 603.252 1439.14 603.767 1437.5 603.767" fill="#E0004D" fill-opacity="0.5"/>
<path id="Fill 8" fill-rule="evenodd" clip-rule="evenodd" d="M462.23 81.6262C459.857 81.6262 457.511 80.5512 455.972 78.5007C445.682 64.8066 448.406 45.265 462.047 34.9372C468.65 29.9328 476.804 27.8191 485.003 28.9603C493.199 30.1135 500.462 34.3982 505.448 41.0315C508.052 44.4972 507.365 49.4262 503.912 52.0398C500.456 54.6534 495.545 53.9669 492.944 50.4982C490.475 47.2222 486.887 45.0994 482.831 44.5303C478.793 43.9672 474.749 45.0121 471.482 47.4871C464.732 52.5968 463.388 62.2623 468.476 69.0341C471.08 72.4998 470.396 77.4288 466.943 80.0424C465.53 81.1113 463.874 81.6262 462.23 81.6262" fill="#E0004D" fill-opacity="0.5"/>
<path id="Fill 9" fill-rule="evenodd" clip-rule="evenodd" d="M1543.23 246.554C1541.47 246.554 1539.7 245.963 1538.24 244.75C1531.86 239.454 1527.92 231.98 1527.14 223.709C1526.36 215.438 1528.84 207.356 1534.12 200.958C1545.01 187.742 1564.58 185.887 1577.75 196.82C1581.08 199.588 1581.55 204.544 1578.79 207.889C1576.03 211.234 1571.1 211.698 1567.77 208.937C1561.25 203.526 1551.57 204.45 1546.18 210.981C1543.57 214.146 1542.35 218.139 1542.73 222.234C1543.12 226.323 1545.07 230.02 1548.22 232.637C1551.55 235.407 1552.02 240.36 1549.27 243.705C1547.71 245.584 1545.48 246.554 1543.23 246.554" fill="#E5F1F0"/>
<path id="Fill 10" fill-rule="evenodd" clip-rule="evenodd" d="M589.574 583.425C588.386 584.735 586.76 585.647 584.885 585.915C576.689 587.087 568.532 584.985 561.911 579.993C555.293 575.003 551.003 567.729 549.836 559.506C547.43 542.524 559.232 526.749 576.155 524.328C580.439 523.717 584.402 526.704 585.014 531.003C585.623 535.303 582.641 539.278 578.363 539.892C569.993 541.084 564.161 548.895 565.346 557.29C565.925 561.358 568.043 564.953 571.316 567.422C574.592 569.891 578.627 570.933 582.677 570.351C586.961 569.74 590.927 572.727 591.536 577.027C591.878 579.442 591.086 581.751 589.574 583.425" fill="#E0004D" fill-opacity="0.5"/>
<path id="Fill 11" fill-rule="evenodd" clip-rule="evenodd" d="M524.612 166.631C522.269 166.631 519.95 165.58 518.408 163.571C515.765 160.136 516.398 155.198 519.818 152.545C529.055 145.388 537.62 146.258 543.881 146.899C549.254 147.444 552.497 147.772 556.787 144.448C561.08 141.121 561.584 137.89 562.418 132.54C563.384 126.304 564.71 117.765 573.947 110.61C583.19 103.45 591.758 104.32 598.01 104.959C603.377 105.504 606.623 105.832 610.925 102.502C615.224 99.1715 615.728 95.9406 616.562 90.584C617.534 84.3482 618.863 75.8089 628.1 68.6487C631.529 65.9929 636.443 66.6283 639.086 70.0669C641.729 73.5024 641.096 78.4405 637.676 81.0933C633.374 84.4235 632.87 87.6573 632.039 93.0109C631.067 99.2467 629.735 107.789 620.498 114.946C611.258 122.109 602.687 121.233 596.435 120.598C591.068 120.053 587.822 119.722 583.52 123.055C579.224 126.382 578.723 129.61 577.892 134.961C576.926 141.196 575.597 149.736 566.357 156.893C557.123 164.047 548.555 163.18 542.3 162.539C536.933 161.997 533.687 161.665 529.394 164.99C527.966 166.095 526.283 166.631 524.612 166.631" fill="#007672" fill-opacity="0.5"/>
<path id="Fill 12" fill-rule="evenodd" clip-rule="evenodd" d="M1961.95 255.079C1960.31 255.079 1958.65 254.564 1957.24 253.492C1952.9 250.204 1949.66 250.562 1944.3 251.17C1938.04 251.869 1929.48 252.821 1920.18 245.766C1910.86 238.699 1909.45 230.172 1908.42 223.948C1907.53 218.6 1906.99 215.372 1902.66 212.087C1898.33 208.802 1895.09 209.167 1889.73 209.772C1883.49 210.482 1874.93 211.437 1865.62 204.376C1856.31 197.312 1854.89 188.785 1853.86 182.561C1852.97 177.214 1852.44 173.989 1848.11 170.707C1844.66 168.087 1843.98 163.158 1846.58 159.695C1849.2 156.23 1854.11 155.549 1857.56 158.163C1866.86 165.227 1868.28 173.754 1869.31 179.978C1870.2 185.319 1870.73 188.547 1875.07 191.832C1879.39 195.114 1882.63 194.75 1887.99 194.148C1894.24 193.443 1902.8 192.479 1912.1 199.543C1921.42 206.61 1922.83 215.137 1923.86 221.361C1924.75 226.709 1925.29 229.937 1929.62 233.222C1933.96 236.507 1937.19 236.148 1942.56 235.543C1948.81 234.848 1957.37 233.884 1966.68 240.948C1970.13 243.568 1970.82 248.497 1968.21 251.959C1966.67 254.004 1964.32 255.079 1961.95 255.079" fill="#E5F1F0"/>
<path id="Fill 13" fill-rule="evenodd" clip-rule="evenodd" d="M1825.72 456.278C1824.14 456.73 1822.41 456.685 1820.76 456.04C1815.69 454.062 1812.67 455.294 1807.68 457.341C1801.84 459.726 1793.87 462.978 1783 458.732C1772.12 454.478 1768.45 446.658 1765.77 440.952C1763.46 436.05 1762.07 433.087 1757.01 431.112C1751.96 429.134 1748.93 430.371 1743.94 432.416C1738.13 434.804 1730.15 438.065 1719.28 433.81C1708.4 429.558 1704.73 421.742 1702.05 416.03C1699.74 411.128 1698.35 408.174 1693.3 406.199C1689.27 404.618 1687.27 400.062 1688.84 396.019C1690.42 391.972 1694.96 389.972 1698.98 391.544C1709.86 395.799 1713.53 403.618 1716.21 409.327C1718.52 414.226 1719.91 417.183 1724.96 419.158C1730.02 421.137 1733.04 419.902 1738.03 417.858C1743.85 415.473 1751.83 412.209 1762.7 416.46C1773.57 420.718 1777.25 428.535 1779.93 434.244C1782.23 439.143 1783.63 442.102 1788.69 444.081C1793.75 446.059 1796.77 444.83 1801.77 442.78C1807.59 440.401 1815.57 437.137 1826.44 441.392C1830.47 442.967 1832.47 447.525 1830.9 451.569C1829.97 453.957 1828 455.634 1825.72 456.278" fill="#E5F1F0"/>
<path id="Fill 14" fill-rule="evenodd" clip-rule="evenodd" d="M512.539 384.459C512.239 386.082 511.435 387.626 510.127 388.825C506.119 392.507 505.882 395.771 505.504 401.173C505.054 407.478 504.433 416.095 495.826 424.002C487.213 431.909 478.603 431.759 472.318 431.647C466.918 431.554 463.657 431.494 459.652 435.176C455.65 438.847 455.419 442.117 455.038 447.513C454.6 453.8 453.982 462.429 445.372 470.333C436.762 478.24 428.149 478.093 421.864 477.978C416.464 477.882 413.206 477.828 409.204 481.501C406.012 484.434 401.062 484.214 398.14 481.01C395.218 477.807 395.443 472.832 398.629 469.903C407.239 461.999 415.852 462.152 422.14 462.261C427.534 462.357 430.792 462.414 434.797 458.735C438.799 455.061 439.03 451.794 439.414 446.395C439.855 440.099 440.467 431.479 449.074 423.575C457.69 415.668 466.303 415.818 472.588 415.93C477.988 416.023 481.249 416.08 485.254 412.401C489.262 408.718 489.496 405.461 489.877 400.05C490.33 393.754 490.942 385.13 499.552 377.226C502.744 374.293 507.697 374.513 510.619 377.717C512.341 379.611 512.968 382.119 512.539 384.459" fill="#E5F1F0"/>
<path id="Fill 4" fill-rule="evenodd" clip-rule="evenodd" d="M505.531 751.463C496.57 751.463 487.999 748.29 481.123 742.376C465.376 728.832 463.54 704.958 477.031 689.153C479.842 685.853 484.789 685.471 488.074 688.295C491.359 691.119 491.743 696.081 488.926 699.379C481.054 708.604 482.125 722.539 491.314 730.44C495.763 734.264 501.427 736.125 507.277 735.673C513.124 735.219 518.44 732.512 522.253 728.047C525.067 724.746 530.014 724.367 533.296 727.188C536.581 730.013 536.965 734.975 534.148 738.272C527.614 745.929 518.5 750.575 508.483 751.349C507.496 751.424 506.509 751.463 505.531 751.463" fill="#007672" fill-opacity="0.5"/>
<path id="Fill 7_2" fill-rule="evenodd" clip-rule="evenodd" d="M453.498 299.873C451.125 299.873 448.779 298.796 447.24 296.748C436.947 283.054 439.674 263.509 453.312 253.184C459.918 248.18 468.069 246.066 476.271 247.205C484.467 248.358 491.73 252.642 496.713 259.276C499.317 262.744 498.633 267.671 495.18 270.284C491.724 272.901 486.81 272.211 484.209 268.745C481.743 265.466 478.155 263.347 474.099 262.775C470.058 262.215 466.017 263.259 462.75 265.734C456 270.841 454.656 280.507 459.744 287.278C462.348 290.744 461.664 295.673 458.208 298.287C456.798 299.359 455.142 299.873 453.498 299.873" fill="#007672" fill-opacity="0.5"/>
<path id="Fill 12_2" fill-rule="evenodd" clip-rule="evenodd" d="M2057.95 453.805C2056.31 453.805 2054.65 453.29 2053.24 452.219C2048.9 448.93 2045.66 449.289 2040.3 449.897C2034.04 450.596 2025.48 451.547 2016.18 444.492C2006.86 437.425 2005.45 428.898 2004.42 422.674C2003.53 417.327 2002.99 414.099 1998.66 410.814C1994.33 407.529 1991.09 407.893 1985.73 408.498C1979.49 409.209 1970.93 410.163 1961.62 403.103C1952.31 396.039 1950.89 387.512 1949.86 381.288C1948.97 375.94 1948.44 372.715 1944.11 369.433C1940.66 366.814 1939.98 361.885 1942.58 358.422C1945.2 354.956 1950.11 354.276 1953.56 356.889C1962.86 363.953 1964.28 372.48 1965.31 378.704C1966.2 384.046 1966.73 387.274 1971.07 390.559C1975.39 393.841 1978.63 393.476 1983.99 392.874C1990.24 392.17 1998.8 391.206 2008.1 398.27C2017.42 405.337 2018.83 413.864 2019.86 420.088C2020.75 425.435 2021.29 428.663 2025.62 431.948C2029.96 435.233 2033.19 434.875 2038.56 434.27C2044.81 433.574 2053.37 432.611 2062.68 439.675C2066.13 442.294 2066.82 447.223 2064.21 450.686C2062.67 452.73 2060.32 453.805 2057.95 453.805" fill="#007672" fill-opacity="0.5"/>
<path id="Fill 35" fill-rule="evenodd" clip-rule="evenodd" d="M2010.08 705.246C2003.78 705.246 1998.66 710.386 1998.66 716.7C1998.66 723.017 2003.78 728.157 2010.08 728.157C2016.37 728.157 2021.49 723.017 2021.49 716.7C2021.49 710.386 2016.37 705.246 2010.08 705.246ZM2010.07 743.877C1995.15 743.877 1983 731.686 1983 716.7C1983 701.717 1995.15 689.525 2010.07 689.525C2025.01 689.525 2037.15 701.717 2037.15 716.7C2037.15 731.686 2025.01 743.877 2010.07 743.877V743.877Z" fill="#007672" fill-opacity="0.5"/>
<path id="Fill 37" fill-rule="evenodd" clip-rule="evenodd" d="M1745.52 711.155C1741.19 711.155 1737.66 714.696 1737.66 719.047C1737.66 723.401 1741.19 726.942 1745.52 726.942C1749.86 726.942 1753.39 723.401 1753.39 719.047C1753.39 714.696 1749.86 711.155 1745.52 711.155ZM1745.52 742.659C1732.55 742.659 1722 732.07 1722 719.047C1722 706.027 1732.55 695.438 1745.52 695.438C1758.5 695.438 1769.05 706.027 1769.05 719.047C1769.05 732.07 1758.5 742.659 1745.52 742.659V742.659Z" fill="#E5F1F0"/>
<path id="Fill 41" fill-rule="evenodd" clip-rule="evenodd" d="M2086.8 148.206C2082.87 148.206 2079.66 151.421 2079.66 155.369C2079.66 159.316 2082.87 162.529 2086.8 162.529C2090.74 162.529 2093.94 159.316 2093.94 155.369C2093.94 151.421 2090.74 148.206 2086.8 148.206ZM2086.8 178.25C2074.23 178.25 2064 167.985 2064 155.369C2064 142.752 2074.23 132.485 2086.8 132.485C2099.37 132.485 2109.6 142.752 2109.6 155.369C2109.6 167.985 2099.37 178.25 2086.8 178.25V178.25Z" fill="#007672" fill-opacity="0.5"/>
<path id="Fill 18" fill-rule="evenodd" clip-rule="evenodd" d="M1839.52 788.747C1838.84 785.377 1838.75 781.508 1839.72 777.013C1842.19 765.574 1849.3 760.699 1854.49 757.14C1858.06 754.689 1862.93 755.613 1865.38 759.196C1867.81 762.789 1866.9 767.672 1863.33 770.117L1863.32 770.12C1858.87 773.18 1856.17 775.022 1855.03 780.349C1853.87 785.663 1855.57 788.467 1858.36 793.107C1861.62 798.505 1866.08 805.9 1863.62 817.345C1862.7 821.588 1858.53 824.286 1854.31 823.364C1850.08 822.44 1847.39 818.255 1848.31 814.015C1849.46 808.692 1847.77 805.891 1844.97 801.257C1842.99 797.978 1840.56 793.959 1839.52 788.747" fill="#E5F1F0"/>
<path id="Fill 19" fill-rule="evenodd" clip-rule="evenodd" d="M1948.86 69.6601C1945.6 70.7079 1941.78 71.2409 1937.22 70.7712C1925.62 69.5788 1920 63.0358 1915.9 58.2543C1913.07 54.9663 1913.44 50.0011 1916.72 47.1677C1920 44.3313 1924.94 44.7017 1927.76 47.9897L1927.77 47.9957C1931.29 52.0998 1933.42 54.5779 1938.82 55.1319C1944.21 55.6889 1946.79 53.6866 1951.08 50.3775C1956.06 46.5264 1962.88 41.251 1974.49 42.4344C1978.79 42.874 1981.93 46.7341 1981.49 51.0519C1981.05 55.3698 1977.2 58.5193 1972.9 58.0737C1967.5 57.5226 1964.92 59.5159 1960.64 62.8281C1957.62 65.1707 1953.91 68.0402 1948.86 69.6601" fill="#E0004D" fill-opacity="0.5"/>
<path id="Fill 20" fill-rule="evenodd" clip-rule="evenodd" d="M116.819 426.376C114.482 428.891 111.413 431.23 107.207 433.058C96.5028 437.713 88.4148 434.762 82.5078 432.606C78.4428 431.125 76.3428 426.611 77.8188 422.528C79.3038 418.448 83.7918 416.344 87.8538 417.828L87.8598 417.831C92.9358 419.683 95.9958 420.8 100.976 418.632C105.953 416.47 107.231 413.456 109.355 408.467C111.824 402.662 115.205 394.712 125.909 390.051C129.878 388.32 134.489 390.148 136.208 394.131C137.93 398.115 136.109 402.749 132.143 404.471C127.163 406.642 125.882 409.647 123.764 414.636C122.267 418.162 120.431 422.483 116.819 426.376" fill="#E5F1F0"/>
<path id="Fill 21" fill-rule="evenodd" clip-rule="evenodd" d="M723.695 144.652C718.313 144.652 713.864 143.002 710.24 141.659C705.179 139.786 702.119 138.651 697.13 140.798C693.17 142.511 688.553 140.663 686.846 136.667C685.142 132.677 686.984 128.058 690.959 126.348C701.684 121.732 709.766 124.728 715.664 126.911C720.725 128.787 723.782 129.916 728.774 127.772C733.757 125.628 735.047 122.626 737.186 117.652C739.673 111.859 743.081 103.922 753.809 99.309C764.534 94.6961 772.61 97.6861 778.508 99.8661C782.57 101.369 784.649 105.888 783.152 109.962C781.655 114.033 777.155 116.123 773.096 114.62C768.029 112.744 764.969 111.612 759.977 113.759C754.994 115.903 753.704 118.905 751.568 123.879C749.078 129.675 745.67 137.609 734.945 142.222C730.811 144.002 727.07 144.649 723.695 144.652" fill="#E0004D" fill-opacity="0.5"/>
<path id="Fill 22" fill-rule="evenodd" clip-rule="evenodd" d="M616.804 498.278C614.635 499.169 612.094 499.079 609.907 497.808C606.166 495.631 604.888 490.82 607.054 487.065C612.901 476.93 621.157 474.479 627.19 472.693C632.371 471.155 635.497 470.227 638.212 465.521C640.93 460.809 640.177 457.626 638.929 452.357C637.471 446.221 635.476 437.814 641.323 427.682C647.179 417.54 655.435 415.086 661.462 413.301C666.637 411.768 669.766 410.838 672.49 406.123C675.211 401.401 674.458 398.222 673.207 392.949C671.755 386.804 669.766 378.397 675.613 368.259C677.785 364.498 682.57 363.218 686.314 365.395C690.058 367.572 691.336 372.381 689.17 376.139C686.446 380.857 687.199 384.04 688.45 389.312C689.902 395.455 691.894 403.864 686.047 413.999C680.194 424.138 671.932 426.586 665.908 428.377C660.733 429.913 657.604 430.84 654.88 435.558C652.162 440.268 652.918 443.447 654.166 448.717C655.624 454.856 657.616 463.263 651.766 473.398C645.919 483.533 637.66 485.984 631.63 487.773C626.458 489.308 623.329 490.236 620.611 494.945C619.705 496.508 618.349 497.643 616.804 498.278" fill="#E0004D" fill-opacity="0.5"/>
<path id="Fill 24" fill-rule="evenodd" clip-rule="evenodd" d="M433.945 629.064C428.962 631.112 424.225 631.277 420.364 631.407C414.97 631.599 411.712 631.711 407.905 635.595C404.887 638.684 399.916 638.729 396.829 635.679C393.748 632.638 393.709 627.658 396.742 624.566C404.926 616.222 413.536 615.918 419.821 615.698C425.212 615.511 428.467 615.394 432.277 611.513C436.081 607.635 436.141 604.365 436.243 598.951C436.36 592.64 436.522 583.998 444.706 575.654C452.893 567.305 461.497 567.004 467.779 566.781C472.102 566.627 475.732 570.021 475.885 574.357C476.035 578.699 472.66 582.339 468.337 582.492C462.94 582.682 459.682 582.797 455.869 586.681C452.068 590.562 452.008 593.829 451.903 599.246C451.789 605.554 451.627 614.196 443.443 622.539C440.287 625.761 437.068 627.778 433.945 629.064" fill="#E5F1F0"/>
<path id="Fill 25" fill-rule="evenodd" clip-rule="evenodd" d="M1596.93 91.2791C1598.23 93.2393 1598.63 95.7565 1597.82 98.1593C1596.43 102.269 1591.98 104.47 1587.89 103.076C1576.84 99.3095 1572.82 91.6675 1569.9 86.0761C1567.38 81.2795 1565.86 78.3859 1560.73 76.6365C1555.59 74.8871 1552.63 76.2511 1547.72 78.5124C1542.01 81.153 1534.19 84.7663 1523.14 80.9995C1512.09 77.2297 1508.08 69.5817 1505.15 64.0022C1502.63 59.2087 1501.11 56.312 1495.97 54.5566C1490.83 52.8042 1487.86 54.1682 1482.95 56.4355C1477.24 59.0701 1469.42 62.6804 1458.37 58.9136C1454.26 57.5165 1452.07 53.0541 1453.47 48.941C1454.86 44.831 1459.31 42.6299 1463.4 44.024C1468.55 45.7795 1471.51 44.4155 1476.41 42.1482C1482.13 39.5135 1489.95 35.9033 1501 39.6701C1512.06 43.4399 1516.07 51.0909 1519 56.6704C1521.52 61.4579 1523.04 64.3575 1528.18 66.1129C1533.32 67.8654 1536.28 66.4984 1541.18 64.2341C1546.89 61.5964 1554.71 57.9832 1565.77 61.753C1576.81 65.5198 1580.83 73.1648 1583.75 78.7502C1586.27 83.5378 1587.79 86.4374 1592.93 88.1868C1594.63 88.7709 1596.01 89.882 1596.93 91.2791" fill="#007672" fill-opacity="0.5"/>
<path id="Fill 27" fill-rule="evenodd" clip-rule="evenodd" d="M337.834 870.979C334.795 870.979 331.9 869.19 330.631 866.203C328.933 862.213 330.778 857.592 334.756 855.887C339.721 853.755 342.718 852.47 344.872 847.471C347.029 842.473 345.913 839.402 344.062 834.313C341.902 828.388 338.947 820.27 343.582 809.523C348.217 798.771 356.137 795.375 361.921 792.897C366.883 790.768 369.88 789.482 372.037 784.484C373.753 780.5 378.37 778.672 382.333 780.395C386.305 782.117 388.129 786.745 386.41 790.729C381.775 801.481 373.855 804.877 368.071 807.356C363.109 809.484 360.112 810.77 357.955 815.768C355.804 820.764 356.923 823.835 358.774 828.92C360.931 834.849 363.886 842.967 359.248 853.713C354.613 864.469 346.693 867.865 340.909 870.343C339.907 870.774 338.863 870.979 337.834 870.979" fill="#E5F1F0"/>
<path id="Fill 30" fill-rule="evenodd" clip-rule="evenodd" d="M1855.77 612.16C1852.37 611.78 1848.67 610.696 1844.7 608.402C1834.59 602.555 1832.13 594.277 1830.33 588.231C1829.09 584.073 1831.45 579.692 1835.59 578.448C1839.74 577.208 1844.1 579.571 1845.34 583.727L1845.34 583.736C1846.89 588.927 1847.82 592.058 1852.52 594.78C1857.22 597.499 1860.39 596.731 1865.65 595.467C1871.76 593.994 1880.14 591.977 1890.25 597.821C1894 599.983 1895.29 604.792 1893.13 608.553C1890.97 612.313 1886.18 613.611 1882.43 611.443C1877.73 608.724 1874.56 609.486 1869.31 610.751C1865.59 611.651 1861.04 612.75 1855.77 612.16" fill="#E5F1F0"/>
<path id="Fill 33" fill-rule="evenodd" clip-rule="evenodd" d="M1524.43 494.901C1522.76 497.448 1519.68 498.893 1516.5 498.315C1512.24 497.544 1509.42 493.452 1510.18 489.18C1511.14 483.847 1511.72 480.625 1508.75 476.073C1505.77 471.514 1502.61 470.761 1497.35 469.515C1491.24 468.066 1482.86 466.073 1476.46 456.278C1470.07 446.48 1471.6 437.974 1472.72 431.762C1473.67 426.43 1474.25 423.214 1471.28 418.655C1468.91 415.024 1469.93 410.149 1473.54 407.774C1477.16 405.395 1482.01 406.413 1484.38 410.044C1490.78 419.842 1489.25 428.348 1488.13 434.56C1487.17 439.889 1486.59 443.111 1489.56 447.667C1492.54 452.219 1495.71 452.969 1500.96 454.216C1507.08 455.667 1515.46 457.66 1521.85 467.455C1528.25 477.256 1526.72 485.762 1525.6 491.977C1525.41 493.052 1525 494.04 1524.43 494.901" fill="#E5F1F0"/>
<path id="Fill 33 Copy" fill-rule="evenodd" clip-rule="evenodd" d="M1566.43 374.46C1564.76 377.007 1561.68 378.452 1558.5 377.874C1554.24 377.103 1551.42 373.011 1552.18 368.739C1553.14 363.406 1553.72 360.185 1550.75 355.632C1547.77 351.073 1544.61 350.32 1539.35 349.074C1533.24 347.626 1524.86 345.632 1518.46 335.837C1512.07 326.039 1513.6 317.533 1514.72 311.322C1515.67 305.989 1516.25 302.773 1513.28 298.215C1510.91 294.583 1511.93 289.708 1515.54 287.333C1519.16 284.954 1524.01 285.972 1526.38 289.603C1532.78 299.401 1531.25 307.907 1530.13 314.119C1529.17 319.448 1528.59 322.67 1531.56 327.226C1534.54 331.778 1537.71 332.528 1542.96 333.775C1549.08 335.226 1557.46 337.219 1563.85 347.014C1570.25 356.815 1568.72 365.321 1567.6 371.536C1567.41 372.611 1567 373.599 1566.43 374.46" fill="#E0004D" fill-opacity="0.5"/>
<path id="Fill 34" fill-rule="evenodd" clip-rule="evenodd" d="M161.543 122.085C163.712 124.223 164.534 127.532 163.355 130.558C161.786 134.599 157.244 136.602 153.215 135.024C148.184 133.058 145.145 131.868 140.12 133.922C135.095 135.975 133.751 138.953 131.522 143.888C128.93 149.636 125.375 157.507 114.569 161.924C103.76 166.341 95.7376 163.204 89.8786 160.91C84.8476 158.943 81.8146 157.754 76.7866 159.808C72.7816 161.446 68.2066 159.506 66.5806 155.493C64.9486 151.47 66.8746 146.884 70.8826 145.249C81.6916 140.829 89.7106 143.97 95.5696 146.264C100.598 148.23 103.637 149.419 108.665 147.366C113.687 145.312 115.028 142.335 117.254 137.399C119.849 131.651 123.404 123.778 134.21 119.363C145.022 114.943 153.047 118.084 158.906 120.378C159.923 120.776 160.811 121.363 161.543 122.085" fill="#007672" fill-opacity="0.5"/>
<path id="Fill 36" fill-rule="evenodd" clip-rule="evenodd" d="M257.348 497.216C251.057 497.216 245.936 502.356 245.936 508.673C245.936 514.987 251.057 520.127 257.348 520.127C263.642 520.127 268.763 514.987 268.763 508.673C268.763 502.356 263.642 497.216 257.348 497.216ZM257.347 535.848C242.419 535.848 230.272 523.656 230.272 508.673C230.272 493.687 242.419 481.496 257.347 481.496C272.278 481.496 284.425 493.687 284.425 508.673C284.425 523.656 272.278 535.848 257.347 535.848V535.848Z" fill="#007672" fill-opacity="0.5"/>
<path id="Fill 36 Copy 2" fill-rule="evenodd" clip-rule="evenodd" d="M677.348 165.892C671.057 165.892 665.936 171.032 665.936 177.349C665.936 183.663 671.057 188.803 677.348 188.803C683.642 188.803 688.763 183.663 688.763 177.349C688.763 171.032 683.642 165.892 677.348 165.892ZM677.347 204.523C662.419 204.523 650.272 192.332 650.272 177.349C650.272 162.363 662.419 150.171 677.347 150.171C692.278 150.171 704.425 162.363 704.425 177.349C704.425 192.332 692.278 204.523 677.347 204.523V204.523Z" fill="#E5F1F0"/>
<path id="Fill 36 Copy" fill-rule="evenodd" clip-rule="evenodd" d="M1607.35 587.216C1601.06 587.216 1595.94 592.356 1595.94 598.673C1595.94 604.987 1601.06 610.127 1607.35 610.127C1613.64 610.127 1618.76 604.987 1618.76 598.673C1618.76 592.356 1613.64 587.216 1607.35 587.216ZM1607.35 625.848C1592.42 625.848 1580.27 613.656 1580.27 598.673C1580.27 583.687 1592.42 571.496 1607.35 571.496C1622.28 571.496 1634.42 583.687 1634.42 598.673C1634.42 613.656 1622.28 625.848 1607.35 625.848V625.848Z" fill="#007672" fill-opacity="0.5"/>
<path id="Fill 38" fill-rule="evenodd" clip-rule="evenodd" d="M153.027 708.558C149.094 708.558 145.893 711.768 145.893 715.715C145.893 719.666 149.094 722.876 153.027 722.876C156.96 722.876 160.164 719.666 160.164 715.715C160.164 711.768 156.96 708.558 153.027 708.558ZM153.026 738.599C140.453 738.599 130.229 728.335 130.229 715.715C130.229 703.099 140.453 692.834 153.026 692.834C165.596 692.834 175.823 703.099 175.823 715.715C175.823 728.335 165.596 738.599 153.026 738.599V738.599Z" fill="#E0004D" fill-opacity="0.5"/>
<path id="Fill 39" fill-rule="evenodd" clip-rule="evenodd" d="M317.744 39.2476C313.814 39.2476 310.61 42.4633 310.61 46.4108C310.61 50.3613 313.814 53.571 317.744 53.571C321.68 53.571 324.881 50.3613 324.881 46.4108C324.881 42.4633 321.68 39.2476 317.744 39.2476ZM317.743 69.2945C305.173 69.2945 294.946 59.0299 294.946 46.4107C294.946 33.7945 305.173 23.5269 317.743 23.5269C330.316 23.5269 340.543 33.7945 340.543 46.4107C340.543 59.0299 330.316 69.2945 317.743 69.2945V69.2945Z" fill="#E0004D" fill-opacity="0.5"/>
<path id="Fill 40" fill-rule="evenodd" clip-rule="evenodd" d="M295.824 233.232C291.891 233.232 288.69 236.448 288.69 240.396C288.69 244.346 291.891 247.556 295.824 247.556C299.757 247.556 302.958 244.346 302.958 240.396C302.958 236.448 299.757 233.232 295.824 233.232ZM295.823 263.279C283.25 263.279 273.026 253.015 273.026 240.396C273.026 227.779 283.25 217.512 295.823 217.512C308.393 217.512 318.62 227.779 318.62 240.396C318.62 253.015 308.393 263.279 295.823 263.279V263.279Z" fill="#007672" fill-opacity="0.5"/>
<path id="Fill 42" fill-rule="evenodd" clip-rule="evenodd" d="M724.801 467.372C720.868 467.372 717.664 470.587 717.664 474.535C717.664 478.482 720.868 481.695 724.801 481.695C728.734 481.695 731.935 478.482 731.935 474.535C731.935 470.587 728.734 467.372 724.801 467.372ZM724.8 497.415C712.23 497.415 702 487.154 702 474.535C702 461.918 712.23 451.654 724.8 451.654C737.37 451.654 747.597 461.918 747.597 474.535C747.597 487.154 737.37 497.415 724.8 497.415V497.415Z" fill="#E0004D" fill-opacity="0.5"/>
<path id="Fill 43" fill-rule="evenodd" clip-rule="evenodd" d="M1734.23 241.235C1730.3 241.235 1727.1 244.451 1727.1 248.398C1727.1 252.346 1730.3 255.558 1734.23 255.558C1738.17 255.558 1741.37 252.346 1741.37 248.398C1741.37 244.451 1738.17 241.235 1734.23 241.235ZM1734.23 271.279C1721.66 271.279 1711.44 261.017 1711.44 248.398C1711.44 235.782 1721.66 225.514 1734.23 225.514C1746.81 225.514 1757.03 235.782 1757.03 248.398C1757.03 261.017 1746.81 271.279 1734.23 271.279V271.279Z" fill="#E0004D" fill-opacity="0.5"/>
<g id="boy">
<path id="Fill 45" fill-rule="evenodd" clip-rule="evenodd" d="M938.565 474.494C938.123 466.169 968.942 470.803 963.419 476.825C957.896 482.82 938.869 479.6 938.565 474.494" fill="#868A8E"/>
<path id="Fill 46" fill-rule="evenodd" clip-rule="evenodd" d="M968.03 501.329C960.657 501.329 964.799 474.494 972.173 477.269C975.207 478.434 975.404 501.329 968.03 501.329" fill="#868A8E"/>
<path id="Fill 47" fill-rule="evenodd" clip-rule="evenodd" d="M1189.89 471.663C1190.14 471.33 1191.52 469.498 1193.09 466.917C1197.98 460.368 1208.45 448.74 1224.68 443.079C1225.65 442.746 1226.62 442.413 1227.61 442.135C1240.18 438.444 1273.18 439.36 1275.03 454.151C1276.68 467.583 1228.08 483.29 1228.08 483.29C1228.08 483.29 1271.8 491.144 1270.42 511.958C1269.03 532.771 1229.9 521.671 1215.19 523.058C1215.19 523.058 1232.22 532.327 1221.62 542.956C1211.6 553.03 1200 528.609 1149.82 542.956C1113.4 553.363 1066.53 589.218 1014.06 561.466C961.596 533.715 980.457 474.049 982.307 470.331C982.307 470.331 945.469 471.718 940.415 446.742C935.362 421.766 949.169 383.385 949.169 383.385L952.646 383.052C961.9 386.521 971.096 383.025 977.143 379.556L977.696 381.526C996.557 406.058 986.45 456.455 986.45 456.455C986.45 456.455 1114.58 428.898 1122.67 457.398C1126.13 469.554 1114.11 480.515 1112.68 481.792C1116.05 479.378 1176.19 436.418 1195.85 446.742C1202.15 450.072 1196.96 460.645 1193.09 466.917C1191.16 469.498 1190.11 471.302 1189.89 471.663" fill="#868A8E"/>
<path id="Fill 49" fill-rule="evenodd" clip-rule="evenodd" d="M856.88 231.808C868.285 254.675 902.497 298.605 914.402 313.813C916.446 316.449 917.827 318.198 918.324 318.864C922.27 324.164 982.363 281.316 987.665 277.514L987.693 277.486C991.763 267.044 997.626 256.784 1005.95 249.383C1016.78 232.829 1032.72 222.913 1051.17 217.371C1055.12 205.696 1064.84 188.782 1088.16 187.267C1110.99 185.801 1122.65 201.176 1128.11 212.562C1140.64 213.653 1179.23 223.871 1184.75 229.421C1190.5 235.193 1194.8 240.488 1196.79 247.382C1204.84 255.932 1210.78 268.759 1215.13 283.842C1219.47 287.227 1233.33 297.495 1237.97 294.581C1238.71 294.11 1240.59 292.139 1243.3 289.003C1257.55 272.658 1294.19 225.147 1305.07 200.754C1307.78 194.729 1308.88 190.125 1307.7 187.738C1301.01 174.334 1244.71 120.746 1225.98 108.397C1229.98 80.6702 1237.58 0 1237.58 0L889.48 0C889.48 0 913.969 110.28 920.284 142.393L919.014 142.642C899.684 153.743 858.951 207.164 853.428 218.959C852.407 221.123 853.843 225.73 856.88 231.808Z" fill="#E5F1F0"/>
<path id="Fill 50" fill-rule="evenodd" clip-rule="evenodd" d="M1128.11 212.562C1122.65 201.175 1110.99 185.801 1088.16 187.266C1064.84 188.782 1055.12 205.696 1051.17 217.371C1074.62 210.328 1102.07 210.3 1128.11 212.562" fill="#EDC2B8"/>
<path id="Fill 52" fill-rule="evenodd" clip-rule="evenodd" d="M1006.05 249.227C1016.88 232.768 1032.77 222.896 1051.17 217.371C1049.03 223.673 1048.58 228.449 1048.58 228.449L1048.83 229.421C1032.18 233.528 1017.6 239.717 1007.38 248.097C1006.93 248.467 1006.49 248.841 1006.05 249.227M1196.79 247.365C1194.18 244.593 1191.34 242.267 1188.26 240.466C1174.62 232.446 1154.49 227.118 1132.28 224.703L1132.34 224.287C1132.34 224.287 1132.34 224.284 1132.34 224.282C1132.3 224.096 1131.19 218.959 1128.11 212.565C1128.13 212.565 1128.15 212.568 1128.16 212.568C1140.74 213.669 1174.47 219.322 1186.53 230.406C1192.52 235.912 1194.79 240.48 1196.79 247.365" fill="#BBC4C4"/>
<path id="Fill 53" fill-rule="evenodd" clip-rule="evenodd" d="M1048.83 229.422V229.422L1048.58 228.45C1048.58 228.45 1049.03 223.674 1051.17 217.372H1051.17C1051.28 217.339 1051.38 217.308 1051.49 217.278C1051.51 217.272 1051.52 217.266 1051.54 217.261C1066.44 212.84 1082.94 211.23 1099.66 211.23C1099.67 211.23 1099.67 211.23 1099.68 211.23C1099.68 211.23 1099.68 211.23 1099.69 211.23C1109.17 211.23 1118.73 211.749 1128.11 212.563C1128.11 212.563 1128.11 212.563 1128.11 212.565C1131.19 218.959 1132.3 224.096 1132.34 224.282C1132.34 224.285 1132.34 224.288 1132.34 224.288L1132.28 224.704C1132.13 224.687 1131.97 224.67 1131.82 224.654C1122.84 223.677 1113.53 223.183 1104.15 223.183H1104.15C1104.14 223.183 1104.14 223.183 1104.13 223.183C1085.35 223.183 1066.37 225.173 1049.5 229.258C1049.28 229.311 1049.05 229.366 1048.83 229.422" fill="#DBABB5"/>
<path id="Fill 56" fill-rule="evenodd" clip-rule="evenodd" d="M1221.95 317.283L1222.09 317.255C1222.28 317.061 1232.86 310.595 1245.56 318.643C1265.17 331.02 1260.61 362.851 1243.27 369.983C1233.13 374.145 1226.23 368.595 1226.23 368.595H1225.93C1225.49 351.972 1224.33 334.211 1221.95 317.283" fill="#EDC2B8"/>
<path id="Fill 57" fill-rule="evenodd" clip-rule="evenodd" d="M977.144 379.556C971.096 383.025 961.9 386.522 952.646 383.053C948.148 381.388 943.671 378.058 939.504 372.285C920.174 345.45 952.842 300.132 978.386 319.558C978.386 319.558 979.571 298.272 987.665 277.514L987.692 277.487C991.998 266.442 998.269 255.563 1007.38 248.098C1017.6 239.717 1032.18 233.528 1048.83 229.418C1074.4 223.122 1104.95 221.679 1132.28 224.703C1154.49 227.118 1174.62 232.446 1188.26 240.466C1200.83 247.82 1209.36 263.861 1215.13 283.842C1218.08 294.165 1220.29 305.516 1221.95 317.282C1224.33 334.211 1225.49 351.971 1225.93 368.595C1227.06 408.39 1224.16 441.664 1224.16 441.664L1224.68 443.079C1208.45 448.741 1197.98 460.369 1193.09 466.918C1196.96 460.646 1202.15 450.073 1195.85 446.743C1176.19 436.419 1116.05 479.378 1112.68 481.793C1114.11 480.516 1126.13 469.554 1122.67 457.399C1114.58 428.898 986.45 456.456 986.45 456.456C986.45 456.456 996.557 406.059 977.696 381.527L977.144 379.556" fill="#EDC2B8"/>
<path id="Fill 58" fill-rule="evenodd" clip-rule="evenodd" d="M775.139 399.842C774.255 400.702 757.438 416.937 750.782 410.582C743.989 404.088 781.628 312.619 856.189 232.14L856.879 231.807C868.284 254.674 902.497 298.605 914.402 313.813L914.181 314.007C914.181 314.007 864.474 363.959 834.677 402.756C834.677 402.756 839.893 432.117 831.83 435.253C823.769 438.389 812.168 415.189 812.168 415.189C812.168 415.189 798.777 448.407 790.656 446.631C782.54 444.855 792.122 413.94 792.122 413.94C792.122 413.94 772.457 436.529 766.164 431.506C760.006 426.594 774.559 400.869 775.139 399.842" fill="#EDC2B8"/>
<path id="Fill 59" fill-rule="evenodd" clip-rule="evenodd" d="M1365.71 422.294C1365.96 423.848 1370.99 454.18 1362.92 454.846C1354.64 455.54 1345.67 420.85 1345.67 420.85C1345.67 420.85 1331.17 442.358 1323.57 438.195C1315.98 434.032 1324.95 405.587 1324.95 405.587C1312.5 379.251 1249.65 297.218 1243.3 289.003C1257.55 272.658 1294.19 225.147 1305.07 200.754C1377.7 307.902 1414.68 418.797 1407.11 424.319C1399.74 429.731 1385.15 411.498 1384.35 410.499C1384.88 411.803 1395.9 439 1389.16 443.052C1382.45 447.103 1366.63 423.653 1365.71 422.294" fill="#EDC2B8"/>
<path id="Fill 60" fill-rule="evenodd" clip-rule="evenodd" d="M948.064 365.603C950.704 366.305 953.554 366.647 956.244 366.436C958.944 366.217 961.584 365.492 963.805 364.016C966.061 362.603 967.958 360.63 969.496 358.333C970.313 357.22 970.871 355.918 971.595 354.714C972.175 353.429 972.697 352.108 973.312 350.806L973.351 350.726C973.522 350.365 973.956 350.21 974.318 350.382C974.632 350.534 974.793 350.89 974.71 351.217C974.351 352.657 973.925 354.089 973.508 355.535C972.868 356.895 972.354 358.333 971.562 359.637C970.068 362.312 967.853 364.61 965.252 366.367C962.587 368.059 959.422 368.872 956.348 368.922C953.256 368.922 950.262 368.298 947.49 366.947C947.128 366.772 946.979 366.333 947.153 365.972C947.307 365.651 947.664 365.495 947.992 365.584L948.064 365.603" fill="#BB8C90"/>
<path id="Fill 61" fill-rule="evenodd" clip-rule="evenodd" d="M1171.46 395.641C1171.46 387.851 1176.92 381.535 1183.66 381.535C1190.39 381.535 1195.85 387.851 1195.85 395.641C1195.85 403.433 1190.39 409.75 1183.66 409.75C1176.92 409.75 1171.46 403.433 1171.46 395.641" fill="#131121"/>
<path id="Fill 62" fill-rule="evenodd" clip-rule="evenodd" d="M1020.27 405.124C1020.27 397.334 1025.73 391.018 1032.46 391.018C1039.2 391.018 1044.66 397.334 1044.66 405.124C1044.66 412.917 1039.2 419.233 1032.46 419.233C1025.73 419.233 1020.27 412.917 1020.27 405.124" fill="#131121"/>
<path id="Fill 63" fill-rule="evenodd" clip-rule="evenodd" d="M1101.05 348.225C1070.87 356.356 1050.52 340.399 1047.56 337.901C1055.24 322.194 1071.7 307.708 1099.67 305.682C1115.52 304.516 1128.42 308.124 1138.53 314.091L1138.33 314.479C1138.33 314.479 1128.89 340.76 1101.05 348.225" fill="#CF748B"/>
<path id="Fill 64" fill-rule="evenodd" clip-rule="evenodd" d="M1049.02 378.307C1041.04 371.924 1039.52 354.247 1047.56 337.901C1050.52 340.399 1070.87 356.356 1101.05 348.225C1128.89 340.759 1138.33 314.479 1138.33 314.479L1138.52 314.09C1164.79 329.631 1172.27 361.323 1164.1 367.651C1139.71 386.633 1064.68 390.795 1049.02 378.307" fill="#131121"/>
<path id="Fill 65" fill-rule="evenodd" clip-rule="evenodd" d="M1381.49 396.269C1380.07 398.861 1378.27 401.117 1376.28 403.234C1374.27 405.329 1372.01 407.183 1369.61 408.826C1367.18 410.422 1364.59 411.818 1361.84 412.781C1359.13 413.841 1356.23 414.36 1353.37 414.637C1352.97 414.673 1352.61 414.379 1352.58 413.977C1352.54 413.621 1352.77 413.3 1353.1 413.205L1353.15 413.189C1355.82 412.412 1358.46 411.684 1360.93 410.502C1363.42 409.392 1365.85 408.121 1368.08 406.531C1370.37 405.03 1372.52 403.317 1374.55 401.45C1376.58 399.607 1378.51 397.57 1380.26 395.48L1380.29 395.442C1380.55 395.133 1381.02 395.095 1381.32 395.356C1381.59 395.583 1381.65 395.969 1381.49 396.269" fill="#BB8C90"/>
<path id="Fill 66" fill-rule="evenodd" clip-rule="evenodd" d="M781.14 385.509C782.609 387.807 784.261 390.077 786.034 392.172C787.801 394.287 789.715 396.266 791.786 398.05C793.791 399.921 796.036 401.494 798.358 402.923C800.661 404.419 803.188 405.482 805.734 406.603L805.784 406.625C806.151 406.786 806.32 407.219 806.159 407.588C806.016 407.916 805.662 408.085 805.328 408.007C802.525 407.361 799.725 406.467 797.168 405.063C794.564 403.748 792.181 402.027 789.974 400.132C787.806 398.186 785.807 396.052 784.087 393.713C782.386 391.354 780.894 388.884 779.82 386.125C779.674 385.751 779.859 385.326 780.234 385.179C780.563 385.049 780.928 385.176 781.11 385.465L781.14 385.509" fill="#BB8C90"/>
<path id="Fill 54" fill-rule="evenodd" clip-rule="evenodd" d="M1151.37 263.305C1151.35 263.305 1151.33 263.302 1151.31 263.302C1151.31 263.299 1151.31 263.299 1151.31 263.299C1151.32 263.302 1151.35 263.302 1151.37 263.305" fill="#B4434F"/>
</g>
</g>
<defs>
<clipPath id="clip0_333_23544">
<rect width="720" height="290" fill="white" transform="scale(3)"/>
</clipPath>
</defs>
</svg>
