<svg width="162" height="40" viewBox="0 0 162 40" fill="none" xmlns="http://www.w3.org/2000/svg">
<path fill-rule="evenodd" clip-rule="evenodd" d="M61.8355 12.8034V26.6146H58.9835V12.8034H54.3121V10.1001H66.5561V12.8034H61.8355Z" fill="#101820"/>
<path fill-rule="evenodd" clip-rule="evenodd" d="M67.392 25.1892C68.4247 26.3197 69.7523 26.8603 71.4734 26.8603C73.2927 26.8603 74.7188 26.2214 75.8497 25.0418L74.0795 23.2723C73.4403 24.1079 72.6043 24.5011 71.5225 24.5011C70.7358 24.5011 70.0965 24.2554 69.5556 23.7147C69.0147 23.174 68.7197 22.4859 68.6705 21.6504H76.6857C76.7348 21.1589 76.784 20.5691 76.784 19.9301C76.784 18.0624 76.2923 16.6862 75.3088 15.7032C74.3254 14.7693 73.0469 14.2778 71.5225 14.2778C69.8015 14.2778 68.4247 14.8185 67.4412 15.9489C66.4086 17.0794 65.9169 18.6031 65.9169 20.5691C65.9169 22.5351 66.4086 24.0587 67.392 25.1892ZM73.9812 19.3403H68.6705C68.7197 18.4065 69.0147 17.7675 69.5065 17.3252C70.0474 16.8828 70.6866 16.6862 71.4734 16.6862C72.1618 16.6862 72.7519 16.9319 73.1944 17.3743C73.637 17.8167 73.932 18.4556 73.9812 19.3403Z" fill="#101820"/>
<path fill-rule="evenodd" clip-rule="evenodd" d="M83.6681 26.8603C81.9963 26.8603 80.7178 26.3197 79.7343 25.1892C78.7509 24.0587 78.2592 22.5351 78.2592 20.5691C78.2592 18.6031 78.7509 17.0794 79.7343 15.9489C80.7178 14.8185 81.9963 14.2778 83.6681 14.2778C86.1759 14.2778 87.7494 15.4083 88.4379 17.6201L85.8317 18.5048C85.4383 17.4726 84.7499 16.9319 83.7665 16.9319C82.9305 16.9319 82.2913 17.276 81.7996 17.915C81.3079 18.5539 81.1112 19.4878 81.1112 20.6182C81.1112 21.7487 81.357 22.6334 81.7996 23.2723C82.2421 23.9113 82.8814 24.2554 83.6681 24.2554C84.7991 24.2554 85.5367 23.6655 85.8809 22.4859L88.5362 23.2723C87.7986 25.6807 86.1759 26.8603 83.6681 26.8603Z" fill="#101820"/>
<path fill-rule="evenodd" clip-rule="evenodd" d="M90.454 26.5653V10.8372L93.2076 9.55933V15.654C93.9944 14.7201 95.0762 14.2286 96.4039 14.2286C97.6823 14.2286 98.6658 14.6218 99.5017 15.4082C100.288 16.1946 100.682 17.4234 100.682 19.1436V26.5653H97.9282V19.6351C97.9282 17.8166 97.1906 16.8827 95.6663 16.8827C94.0436 16.8827 93.2076 17.7674 93.2076 19.586V26.6145L90.454 26.5653Z" fill="#101820"/>
<path fill-rule="evenodd" clip-rule="evenodd" d="M118.679 26.5653H115.827V17.8165C115.827 17.0793 115.876 16.4403 115.925 15.8505C115.729 16.4403 115.483 17.0793 115.188 17.8657L111.156 26.8602L107.123 17.8165C106.828 17.1776 106.583 16.5386 106.337 15.8505C106.386 16.4403 106.435 17.1284 106.435 17.8165V26.6144H103.583V10.0508H106.435L110.664 19.7334C110.861 20.1757 111.008 20.5689 111.106 20.9622C111.254 20.5689 111.401 20.1757 111.549 19.7334L115.827 10.0508H118.581V26.5653H118.679Z" fill="#007672"/>
<path fill-rule="evenodd" clip-rule="evenodd" d="M128.612 25.5823V26.5653L131.316 26.5162V18.7504C131.316 17.7674 131.169 16.981 130.874 16.3421C130.579 15.7031 130.185 15.2116 129.694 14.9167C129.202 14.6218 128.71 14.4252 128.219 14.3269C127.727 14.2286 127.186 14.1794 126.547 14.1794C124.727 14.1794 123.154 14.6218 121.826 15.5065L122.662 17.7674C123.744 17.0302 124.924 16.637 126.252 16.637C127.038 16.637 127.628 16.8336 128.022 17.1776C128.415 17.5217 128.612 18.0623 128.612 18.8487V19.4877C127.874 19.0453 126.891 18.8487 125.76 18.8487C124.432 18.8487 123.35 19.2419 122.416 19.8809C121.482 20.5198 121.039 21.5028 121.039 22.8299C121.039 24.1078 121.482 25.0908 122.269 25.7789C123.055 26.467 124.137 26.8111 125.416 26.8111C126.743 26.8111 127.825 26.4179 128.612 25.5823ZM128.612 23.2723C127.874 24.0587 126.94 24.4519 125.907 24.4519C125.219 24.4519 124.678 24.3044 124.334 24.0095C123.94 23.7146 123.744 23.3214 123.744 22.8299C123.744 22.2892 123.99 21.8469 124.432 21.6011C124.875 21.3554 125.465 21.2079 126.202 21.2079C127.137 21.2079 127.923 21.3554 128.612 21.6994V23.2723Z" fill="#007672"/>
<path fill-rule="evenodd" clip-rule="evenodd" d="M136.676 29.0719L138.151 31.2837C140.217 31.1362 141.692 30.5956 142.528 29.7109C143.364 28.8262 143.806 27.4008 143.806 25.3856V14.5234H141.052V15.2607C140.364 14.5726 139.479 14.2285 138.348 14.2285C136.824 14.2285 135.644 14.7692 134.709 15.8996C133.775 17.0301 133.332 18.5537 133.332 20.5198C133.332 22.5349 133.775 24.1077 134.709 25.189C135.644 26.2703 136.824 26.811 138.299 26.811C139.479 26.811 140.413 26.4669 141.052 25.7297V26.4178C141.052 27.2534 140.757 27.8923 140.118 28.2855C139.479 28.7279 138.348 28.9736 136.676 29.0719ZM141.052 23.0264C140.561 23.8128 139.774 24.206 138.791 24.206C137.955 24.206 137.266 23.9111 136.774 23.2722C136.332 22.5841 136.086 21.6994 136.086 20.5689C136.086 19.3401 136.332 18.4554 136.774 17.8165C137.266 17.1775 137.905 16.8826 138.791 16.8826C139.725 16.8826 140.512 17.2758 141.052 18.0622V23.0264Z" fill="#007672"/>
<path fill-rule="evenodd" clip-rule="evenodd" d="M147.937 12.9015C148.428 12.9015 148.822 12.7541 149.117 12.41C149.412 12.066 149.559 11.6728 149.608 11.2304C149.608 10.7389 149.412 10.3457 149.117 10.0508C148.773 9.70678 148.379 9.55933 147.937 9.55933C147.445 9.55933 147.101 9.75593 146.756 10.0508C146.412 10.3949 146.265 10.7881 146.265 11.2304C146.265 11.7219 146.412 12.066 146.756 12.41C147.101 12.7541 147.494 12.9015 147.937 12.9015ZM146.56 14.5235V26.5653H149.313V14.5235H146.56Z" fill="#007672"/>
<path fill-rule="evenodd" clip-rule="evenodd" d="M156.837 26.8603C155.165 26.8603 153.886 26.3197 152.903 25.1892C151.92 24.0587 151.428 22.5351 151.428 20.5691C151.428 18.6031 151.92 17.0794 152.903 15.9489C153.886 14.8185 155.165 14.2778 156.837 14.2778C159.345 14.2778 160.918 15.4083 161.607 17.6201L159 18.5048C158.607 17.4726 157.919 16.9319 156.935 16.9319C156.099 16.9319 155.46 17.276 154.968 17.915C154.477 18.5539 154.28 19.4878 154.28 20.6182C154.28 21.7487 154.526 22.6334 154.968 23.2723C155.411 23.9113 156.05 24.2554 156.837 24.2554C157.968 24.2554 158.705 23.6655 159.05 22.4859L161.705 23.2723C160.967 25.6807 159.345 26.8603 156.837 26.8603Z" fill="#007672"/>
<path fill-rule="evenodd" clip-rule="evenodd" d="M49.63 11.8588C47.289 12.3765 44.9948 12.8471 42.6069 13.3647C43.0751 11.4353 43.4965 9.64707 43.9179 7.85884C43.8711 7.85884 43.8711 7.85884 43.8242 7.81178C42.5601 11.5765 41.2959 15.3412 39.9849 19.153C37.4566 16.5647 34.9751 14.0706 32.4468 11.5294C33.2427 11.2471 33.945 10.9647 34.6474 10.6824C37.6439 9.60001 40.5936 8.4706 43.5901 7.38825C43.9179 7.24707 44.152 7.29413 44.4329 7.52943C46.0248 8.84707 47.6167 10.1647 49.2086 11.5294C49.3491 11.5765 49.4427 11.7177 49.63 11.8588Z" fill="#007672"/>
<path fill-rule="evenodd" clip-rule="evenodd" d="M19.1497 20.0471C21.3503 21.9294 23.4572 23.7647 25.611 25.6L25.6578 25.5529C25.5642 25.4588 25.4705 25.3176 25.3769 25.2235C23.5977 23.3882 21.8185 21.5059 20.0393 19.6706C19.8052 19.4353 19.7584 19.2 19.852 18.9176C20.8821 14.3059 21.9121 9.69412 22.8954 5.08235C22.8954 5.03529 22.8954 4.98824 22.8017 4.94118C21.8653 8.18824 20.9757 11.4353 20.0393 14.7294C13.3439 9.83529 6.69538 4.94118 0 0.0941176C0 0.0470588 0.0468208 0 0.0468208 0C1.17052 0.235294 2.2474 0.423529 3.3711 0.658824C7.44451 1.45882 11.5647 2.25882 15.6382 3.05882C17.9792 3.52941 20.3202 3.95294 22.7081 4.47059C22.9422 4.51765 23.2231 4.70588 23.4104 4.89412C28.7948 9.6 34.1324 14.2588 39.5168 18.9647C39.6104 19.0588 39.704 19.1529 39.8445 19.2471C39.6572 19.3412 39.5168 19.4353 39.3763 19.4824C35.3029 21.6 31.2763 23.6706 27.2029 25.7882C26.8283 25.9765 26.4538 26.2118 26.126 26.4941C20.3202 30.9176 14.6081 35.3412 8.89595 39.7647C8.84913 39.8118 8.75549 39.8588 8.61503 39.8588C12.1266 33.2706 15.6382 26.6824 19.1497 20.0471Z" fill="#007672"/>
</svg>
