<svg
  width="304"
  height="231"
  viewBox="0 0 304 231"
  fill="none"
  xmlns="http://www.w3.org/2000/svg"
>
  <path
    fill-rule="evenodd"
    clip-rule="evenodd"
    d="M140.079 61.3504C124.274 63.0558 108.403 64.1008 92.5087 64.3967C87.9205 64.481 83.55 64.5019 80.0516 64.405L79.8286 64.3987C58.9161 63.8216 35.2562 70.0131 21.2927 80.2991C1.4136 94.943 -8.39205 128.412 9.03038 159.307C41.5541 216.979 140.977 238.135 228.115 228.926C272.163 224.269 285.66 205.783 287.939 191.868C288.712 187.142 288.833 182.541 287.757 174.962C286.106 163.328 281.128 131.996 298.558 95.0961C320.541 48.5588 264.399 3.40408 177.21 51.5728C150.23 66.4782 163.088 58.9594 155.872 59.6459L140.079 61.3504Z"
    fill="#FAB0CB"
  />
  <path
    fill-rule="evenodd"
    clip-rule="evenodd"
    d="M90.6746 159.08V135.109C90.6746 126.574 90.8923 119.586 91.3278 114.141H90.8048C89.5859 117.016 87.6699 120.5 85.057 124.592L61.3472 159.08H90.6746ZM112.132 171.819H105.633V186.286C105.633 189.803 102.782 192.656 99.2644 192.656H97.0433C93.5261 192.656 90.6746 189.803 90.6746 186.286V171.819H53.4106C49.8934 171.819 47.043 168.967 47.043 165.45V161.983C47.043 160.689 47.4368 159.426 48.1733 158.361L88.7753 99.6448C89.9651 97.9247 91.9227 96.8975 94.0136 96.8975H99.2644C102.782 96.8975 105.633 99.7489 105.633 103.266V159.081H112.132C115.649 159.081 118.501 161.932 118.501 165.45C118.501 168.967 115.649 171.819 112.132 171.819Z"
    fill="white"
  />
  <path
    fill-rule="evenodd"
    clip-rule="evenodd"
    d="M206.796 147.597C206.796 174.823 184.725 196.894 157.5 196.894C130.273 196.894 108.202 174.823 108.202 147.597C108.202 120.371 130.273 98.3003 157.5 98.3003C184.725 98.3003 206.796 120.371 206.796 147.597Z"
    fill="#00B2A9"
  />
  <path
    fill-rule="evenodd"
    clip-rule="evenodd"
    d="M142.574 178.838C140.926 181.691 136.017 181.941 131.607 179.395C127.197 176.849 124.957 172.472 126.604 169.617C128.252 166.765 133.162 166.516 137.572 169.061C141.982 171.608 144.221 175.985 142.574 178.838Z"
    fill="#007672"
  />
  <path
    fill-rule="evenodd"
    clip-rule="evenodd"
    d="M164.718 185.777C164.718 187.061 162.374 188.102 159.483 188.102C156.591 188.102 154.247 187.061 154.247 185.777C154.247 184.494 156.591 183.453 159.483 183.453C162.374 183.453 164.718 184.494 164.718 185.777Z"
    fill="#007672"
  />
  <path
    opacity="0.544782"
    fill-rule="evenodd"
    clip-rule="evenodd"
    d="M189.243 116.75C189.25 115.85 184.603 115.405 182.489 116.111C179.945 115.107 177.341 114.257 177.341 114.257C177.341 114.257 181.206 112.184 181.094 111.846C181.048 111.709 182.386 109.094 183.994 106.035C176.34 101.145 167.255 98.3008 157.499 98.3008C147.174 98.3008 137.594 101.479 129.674 106.906C129.722 106.968 140.392 120.92 154.21 116.529C154.21 116.529 153.257 120.14 157.499 120.929C160.207 121.433 168.999 121.044 176.367 120.437C176.367 120.437 189.207 121.394 189.243 116.75Z"
    fill="#242853"
  />
  <path
    fill-rule="evenodd"
    clip-rule="evenodd"
    d="M185.776 177.06C184.482 179.763 181.681 181.114 179.52 180.077C177.359 179.043 176.656 176.014 177.949 173.312C179.243 170.611 182.044 169.26 184.205 170.296C186.366 171.33 187.069 174.359 185.776 177.06Z"
    fill="#007672"
  />
  <path
    fill-rule="evenodd"
    clip-rule="evenodd"
    d="M192.208 56.0877C192.208 56.0877 198.048 51.3068 198.937 48.6407C199.825 45.9747 198.809 39.9238 200.037 40.1353C201.264 40.3468 201.053 51.6443 202.703 52.2371C204.353 52.8299 207.949 52.9987 207.991 53.803C208.034 54.6073 198.302 57.5265 196.906 61.0801C195.509 64.6348 192.208 56.0877 192.208 56.0877Z"
    fill="white"
  />
  <path
    fill-rule="evenodd"
    clip-rule="evenodd"
    d="M152.856 52.3225C153.195 52.2099 158 49.2793 158 49.2793C158 49.2793 174.413 66.3933 191.11 54.3759C191.922 53.7914 193.032 53.8414 193.78 54.5051L198.826 58.9735C199.705 59.7517 199.793 61.0884 199.027 61.9791C195.687 65.8599 186.522 75.102 176.609 72.8589C164.14 70.0377 154.662 75.5677 154.662 75.5677L152.856 52.3225Z"
    fill="#F28CB6"
  />
  <path
    fill-rule="evenodd"
    clip-rule="evenodd"
    d="M167.075 72.9715C167.075 72.9715 180.051 60.1081 184.902 75.2281C189.755 90.3481 184.902 103.325 184.902 103.325H169.895L165.834 78.9516L167.075 72.9715Z"
    fill="#00B2A9"
  />
  <path
    fill-rule="evenodd"
    clip-rule="evenodd"
    d="M140.162 49.5182C140.162 49.5182 127.464 40.8825 120.017 51.0382C112.571 61.1939 128.032 93.7332 128.032 93.7332L149.528 77.5016L140.162 49.5182Z"
    fill="#19CCBE"
  />
  <path
    fill-rule="evenodd"
    clip-rule="evenodd"
    d="M129.274 90.123C129.274 90.123 151.391 56.8357 166.284 66.8778C181.179 76.921 171.249 103.099 171.249 103.099H156.693L156.58 112.351C156.58 112.351 133.562 118.332 128.033 93.734L129.274 90.123Z"
    fill="#007672"
  />
  <path
    fill-rule="evenodd"
    clip-rule="evenodd"
    d="M129.611 54.9179L133.273 46.4208C133.273 46.4208 168.879 39.2958 165.042 67.8689C161.207 96.4419 142.813 94.2479 142.813 94.2479L124.309 78.8393L129.611 54.9179Z"
    fill="#007672"
  />
  <path
    fill-rule="evenodd"
    clip-rule="evenodd"
    d="M139.739 78.0485L140.012 60.5761C140.048 58.2757 141.968 56.4536 144.267 56.538L156.857 57.0005C159.064 57.0818 160.811 58.8935 160.811 61.1022V65.8623L139.739 78.0485Z"
    fill="#00B2A9"
  />
  <path
    fill-rule="evenodd"
    clip-rule="evenodd"
    d="M152.123 68.2904C152.123 68.2904 158.386 59.1494 165.833 64.3398C173.281 69.5302 168.272 72.2379 165.332 70.9971C162.39 69.7552 157.426 67.757 152.856 71.295C148.286 74.8331 152.123 68.2904 152.123 68.2904Z"
    fill="white"
  />
  <mask
    id="mask0_834_18439"
    style="mask-type: alpha"
    maskUnits="userSpaceOnUse"
    x="123"
    y="0"
    width="49"
    height="48"
  >
    <path
      fill-rule="evenodd"
      clip-rule="evenodd"
      d="M123.768 0H171.159V47.3917H123.768V0Z"
      fill="white"
    />
  </mask>
  <g mask="url(#mask0_834_18439)">
    <path
      fill-rule="evenodd"
      clip-rule="evenodd"
      d="M171.159 23.6953C171.159 36.7827 160.55 47.3916 147.464 47.3916C134.376 47.3916 123.768 36.7827 123.768 23.6953C123.768 10.6079 134.376 -0.000976562 147.464 -0.000976562C160.55 -0.000976562 171.159 10.6079 171.159 23.6953Z"
      fill="#91E3E5"
    />
  </g>
  <path
    fill-rule="evenodd"
    clip-rule="evenodd"
    d="M127.506 49.6136C124.834 56.0708 113.351 85.8336 125.469 93.2431C127.623 94.561 130.334 94.5527 132.581 93.3994C137.332 90.9594 147.077 85.4888 152.231 79.2847C153.831 77.3605 154.619 74.8914 154.462 72.3941L154.064 66.0754C153.985 64.845 152.536 64.2304 151.603 65.0357C146.131 69.7531 132.658 80.8037 132.658 75.2279C132.658 68.2331 138.159 49.5604 134.464 46.7934C133.26 45.8922 131.879 46.2172 130.9 46.4881C129.344 46.9184 128.123 48.1217 127.506 49.6136Z"
    fill="#F28CB6"
  />
  <path
    fill-rule="evenodd"
    clip-rule="evenodd"
    d="M168.682 103.773L169.895 102.306H184.902V111.136L188.77 115.124C189.943 116.333 188.972 118.348 187.294 118.184L173.337 116.806L167.921 108.344L168.682 103.773Z"
    fill="#F28CB6"
  />
  <path
    fill-rule="evenodd"
    clip-rule="evenodd"
    d="M156.381 115.63L156.329 102.081H171.249L170.959 109.655L175.834 115.614C176.783 116.775 175.891 118.509 174.395 118.41L157.984 117.334C157.084 117.275 156.384 116.531 156.381 115.63Z"
    fill="#EDD3DF"
  />
  <path
    fill-rule="evenodd"
    clip-rule="evenodd"
    d="M127.58 58.8255L130.437 59.5662C130.728 59.6423 130.911 59.9277 130.855 60.2246C130.57 61.7384 129.356 65.7244 127.51 65.0837C125.421 64.3596 126.452 60.5528 126.893 59.1974C126.987 58.9099 127.287 58.7494 127.58 58.8255Z"
    fill="white"
  />
  <path
    fill-rule="evenodd"
    clip-rule="evenodd"
    d="M154.21 82.4219C154.21 82.4219 158.697 89.3896 156.157 100.73C156.157 100.73 157.004 88.4582 154.21 82.4219Z"
    fill="#19CCBE"
  />
  <path
    fill-rule="evenodd"
    clip-rule="evenodd"
    d="M154.899 48.1762L135.89 46.5124C135.287 46.4603 134.84 45.928 134.892 45.3237L134.952 44.6444C135.004 44.0402 135.538 43.5932 136.141 43.6464L155.149 45.3091C155.753 45.3623 156.2 45.8946 156.147 46.4989L156.088 47.1782C156.036 47.7824 155.502 48.2294 154.899 48.1762Z"
    fill="#F28CB6"
  />
  <path
    fill-rule="evenodd"
    clip-rule="evenodd"
    d="M128.093 21.4509L128.028 21.4457C127.475 21.403 127.05 20.9082 127.123 20.3581C128.15 12.6079 133.679 7.63219 135.838 5.95902C136.29 5.60792 136.945 5.72461 137.258 6.20281L137.298 6.26323C137.577 6.6883 137.491 7.25922 137.091 7.5728C135.187 9.06886 130.098 13.6581 129.15 20.5737C129.077 21.1019 128.625 21.4926 128.093 21.4509Z"
    fill="white"
  />
  <path
    fill-rule="evenodd"
    clip-rule="evenodd"
    d="M235.826 159.08V135.109C235.826 126.574 236.044 119.586 236.48 114.141H235.958C234.738 117.016 232.822 120.5 230.209 124.592L206.499 159.08H235.826ZM257.285 171.819H250.785V186.286C250.785 189.803 247.933 192.656 244.416 192.656H242.195C238.678 192.656 235.826 189.803 235.826 186.286V171.819H198.562C195.045 171.819 192.195 168.967 192.195 165.45V161.983C192.195 160.689 192.589 159.426 193.325 158.361L233.928 99.6448C235.117 97.9247 237.075 96.8975 239.165 96.8975H244.416C247.933 96.8975 250.785 99.7489 250.785 103.266V159.081H257.285C260.802 159.081 263.653 161.932 263.653 165.45C263.653 168.967 260.802 171.819 257.285 171.819Z"
    fill="white"
  />
  <path
    fill-rule="evenodd"
    clip-rule="evenodd"
    d="M209.294 48.1293L208.983 47.2771C208.757 46.6562 208.27 46.1676 207.649 45.9415L206.796 45.6321L207.649 45.3216C208.27 45.0955 208.757 44.6069 208.983 43.986L209.294 43.1338L209.604 43.986C209.83 44.6069 210.319 45.0955 210.94 45.3216L211.791 45.6321L210.94 45.9415C210.319 46.1676 209.83 46.6562 209.604 47.2771L209.294 48.1293Z"
    fill="white"
  />
  <path
    fill-rule="evenodd"
    clip-rule="evenodd"
    d="M252.749 66.8372L252.428 65.9589C252.197 65.3192 251.692 64.816 251.053 64.5827L250.174 64.2628L251.053 63.943C251.692 63.7107 252.197 63.2064 252.428 62.5667L252.749 61.6885L253.069 62.5667C253.301 63.2064 253.806 63.7107 254.445 63.943L255.324 64.2628L254.445 64.5827C253.806 64.816 253.301 65.3192 253.069 65.9589L252.749 66.8372Z"
    fill="white"
  />
  <path
    fill-rule="evenodd"
    clip-rule="evenodd"
    d="M264.416 138.052L264.187 137.427C264.022 136.972 263.663 136.614 263.209 136.448L262.584 136.22L263.209 135.993C263.663 135.827 264.022 135.469 264.187 135.014L264.416 134.389L264.643 135.014C264.808 135.469 265.167 135.827 265.622 135.993L266.247 136.22L265.622 136.448C265.167 136.614 264.808 136.972 264.643 137.427L264.416 138.052Z"
    fill="white"
  />
  <path
    fill-rule="evenodd"
    clip-rule="evenodd"
    d="M77.6647 194.988L77.3751 194.192C77.1647 193.613 76.7073 193.156 76.127 192.944L75.3311 192.655L76.127 192.365C76.7073 192.153 77.1647 191.697 77.3751 191.117L77.6647 190.322L77.9544 191.117C78.1659 191.697 78.6222 192.153 79.2025 192.365L79.9984 192.655L79.2025 192.944C78.6222 193.156 78.1659 193.613 77.9544 194.192L77.6647 194.988Z"
    fill="white"
  />
  <path
    fill-rule="evenodd"
    clip-rule="evenodd"
    d="M219.405 214L219.051 213.026C218.793 212.318 218.234 211.759 217.525 211.501L216.552 211.147L217.525 210.791C218.234 210.534 218.793 209.975 219.051 209.265L219.405 208.292L219.761 209.265C220.018 209.975 220.576 210.534 221.287 210.791L222.26 211.147L221.287 211.501C220.576 211.759 220.018 212.318 219.761 213.026L219.405 214Z"
    fill="white"
  />
  <path
    fill-rule="evenodd"
    clip-rule="evenodd"
    d="M86.0509 85.9615L85.6987 84.9936C85.4414 84.2883 84.8861 83.732 84.1808 83.4757L83.2119 83.1236L84.1808 82.7704C84.8861 82.5141 85.4414 81.9588 85.6987 81.2535L86.0509 80.2856L86.403 81.2535C86.6593 81.9588 87.2156 82.5141 87.9199 82.7704L88.8888 83.1236L87.9199 83.4757C87.2156 83.732 86.6593 84.2883 86.403 84.9936L86.0509 85.9615Z"
    fill="white"
  />
  <path
    fill-rule="evenodd"
    clip-rule="evenodd"
    d="M17.8081 119.017L17.5383 118.275C17.3414 117.735 16.9153 117.309 16.3746 117.112L15.6328 116.842L16.3746 116.571C16.9153 116.374 17.3414 115.949 17.5383 115.408L17.8081 114.666L18.078 115.408C18.2749 115.949 18.701 116.374 19.2417 116.571L19.9835 116.842L19.2417 117.112C18.701 117.309 18.2749 117.735 18.078 118.275L17.8081 119.017Z"
    fill="white"
  />
  <path
    fill-rule="evenodd"
    clip-rule="evenodd"
    d="M35.1078 162.304L34.9348 161.829C34.8088 161.482 34.5358 161.21 34.1899 161.083L33.7148 160.91L34.1899 160.738C34.5358 160.611 34.8088 160.339 34.9348 159.993L35.1078 159.518L35.2807 159.993C35.4068 160.339 35.6797 160.611 36.0256 160.738L36.5007 160.91L36.0256 161.083C35.6797 161.21 35.4068 161.482 35.2807 161.829L35.1078 162.304Z"
    fill="white"
  />
  <path
    fill-rule="evenodd"
    clip-rule="evenodd"
    d="M158.476 206.735L158.302 206.26C158.177 205.913 157.903 205.64 157.557 205.514L157.082 205.341L157.557 205.168C157.903 205.042 158.177 204.769 158.302 204.423L158.476 203.948L158.648 204.423C158.773 204.769 159.047 205.042 159.393 205.168L159.868 205.341L159.393 205.514C159.047 205.64 158.773 205.913 158.648 206.26L158.476 206.735Z"
    fill="white"
  />
  <path
    fill-rule="evenodd"
    clip-rule="evenodd"
    d="M56.4481 108.846L56.2752 108.371C56.1491 108.024 55.8761 107.752 55.5302 107.626L55.0552 107.453L55.5302 107.28C55.8761 107.153 56.1491 106.881 56.2752 106.535L56.4481 106.059L56.621 106.535C56.7471 106.881 57.0201 107.153 57.3659 107.28L57.841 107.453L57.3659 107.626C57.0201 107.752 56.7471 108.024 56.621 108.371L56.4481 108.846Z"
    fill="white"
  />
  <path
    fill-rule="evenodd"
    clip-rule="evenodd"
    d="M213.336 92.5811L213.216 92.2529C213.129 92.0143 212.941 91.8247 212.701 91.7382L212.373 91.6184L212.701 91.4986C212.941 91.4121 213.129 91.2236 213.216 90.9839L213.336 90.6558L213.454 90.9839C213.542 91.2236 213.731 91.4121 213.969 91.4986L214.298 91.6184L213.969 91.7382C213.731 91.8247 213.542 92.0143 213.454 92.2529L213.336 92.5811Z"
    fill="white"
  />
  <path
    fill-rule="evenodd"
    clip-rule="evenodd"
    d="M275.874 90.6556L275.677 90.1149C275.533 89.7221 275.224 89.4116 274.83 89.2678L274.289 89.0709L274.83 88.8751C275.224 88.7313 275.533 88.4208 275.677 88.027L275.874 87.4863L276.07 88.027C276.213 88.4208 276.524 88.7313 276.918 88.8751L277.458 89.0709L276.918 89.2678C276.524 89.4116 276.213 89.7221 276.07 90.1149L275.874 90.6556Z"
    fill="white"
  />
</svg>
