<svg width="397" height="197" viewBox="0 0 397 197" fill="none" xmlns="http://www.w3.org/2000/svg">
<path d="M111.02 59.4779C89.627 62.7692 67.0583 69.8219 46.1353 75.5816C29.5614 80.1659 8.991 91.0976 1.7032 116.957C-11.2268 162.918 51.895 198.651 108.669 196.536C124.185 195.948 140.642 193.597 156.275 190.541C203.528 181.372 251.839 179.492 299.798 183.371C322.837 185.251 354.456 193.714 376.437 176.67C423.69 140.114 387.369 50.662 272.88 57.7147C218.339 61.006 184.486 48.076 111.02 59.4779Z" fill="#FAB0CB"/>
<ellipse cx="73.9934" cy="118.015" rx="18.5721" ry="6.46498" fill="white"/>
<ellipse cx="106.906" cy="119.543" rx="10.344" ry="4.81935" fill="white"/>
<ellipse cx="198.239" cy="149.047" rx="18.5721" ry="6.46498" fill="white"/>
<ellipse cx="231.151" cy="150.693" rx="10.344" ry="4.81935" fill="white"/>
<ellipse cx="325.775" cy="114.489" rx="18.5721" ry="6.46498" fill="white"/>
<ellipse cx="358.688" cy="116.017" rx="10.344" ry="4.81935" fill="white"/>
<path d="M132.061 75.4644L128.77 105.438C128.77 105.438 121.834 106.144 122.305 111.433C122.657 114.607 125.361 116.84 128.417 117.193C131.591 117.428 135.705 116.605 137.115 111.198C139.584 101.677 147.459 80.8714 147.459 80.8714L132.061 75.4644Z" fill="#007672"/>
<path d="M251.252 75.4644V105.556C251.252 105.556 244.434 106.966 245.492 112.138C246.197 115.195 249.136 117.193 252.192 117.193C255.366 117.193 259.362 115.9 260.185 110.258C261.596 100.501 267.238 78.9907 267.238 78.9907L251.252 75.4644Z" fill="#007672"/>
<path d="M284.517 34.3232C284.517 34.3232 304.382 20.4529 299.21 0C299.21 0 314.373 20.923 295.096 40.6706C275.583 60.8884 284.517 34.3232 284.517 34.3232Z" fill="#007672"/>
<path d="M111.255 50.7797C111.255 50.7797 132.061 25.0373 160.507 36.6742C186.367 47.3709 262.888 33.5005 276.641 30.797C279.58 30.2093 282.754 30.3268 285.575 31.2672C292.04 33.383 301.796 45.8428 293.803 62.4166C293.803 62.4166 289.454 70.2922 285.34 101.089C284.987 103.557 284.164 106.731 283.811 108.612C282.636 114.489 277.582 122.482 268.178 118.838C264.887 117.545 263.946 113.549 265.004 110.493C265.592 108.612 267.12 107.084 270.411 107.319C270.411 107.319 274.643 92.7433 271.234 87.1011C268.531 82.5169 261.243 75.2291 250.076 77.58C238.909 79.9309 208.935 103.675 158.626 82.0467C158.626 82.0467 155.57 93.0959 159.096 105.556C162.152 116.37 153.336 121.189 147.694 119.661C144.05 118.603 141.699 114.842 143.11 111.433C143.815 109.787 145.108 108.494 147.929 108.494C147.929 108.494 142.405 84.1625 125.008 73.8185C107.611 63.4745 111.255 50.7797 111.255 50.7797Z" fill="#00B2A9"/>
<path d="M106.906 46.3132C98.2078 46.0781 81.2813 48.0763 78.2252 65.2379C77.5199 69.2345 77.755 73.231 78.8129 77.11C80.9287 85.5732 85.7481 105.909 82.927 109.905L88.4516 114.372C88.4516 114.372 103.38 110.023 114.664 88.3943C116.78 84.2802 120.894 82.0469 123.95 76.5223C131.12 63.3572 126.066 55.2466 120.777 51.015C116.78 47.9588 111.843 46.4307 106.906 46.3132Z" fill="#00B2A9"/>
<ellipse cx="84.1025" cy="112.138" rx="5.87726" ry="5.05444" fill="#242853"/>
<path d="M99.2658 51.838C95.2693 53.6011 83.7499 59.5959 91.2728 73.5838C91.7429 74.4066 92.2131 75.2294 92.5658 76.1698C93.5061 78.5207 95.2693 82.9874 95.7395 87.6892C96.3272 93.0963 105.261 97.563 110.903 86.8664C116.545 76.1698 110.433 78.8733 113.254 65.4732C113.606 63.8276 113.841 48.7818 101.734 51.0151C100.794 51.1327 99.9711 51.4853 99.2658 51.838Z" fill="#007672"/>
<ellipse cx="166.972" cy="52.3076" rx="8.93343" ry="8.11062" fill="#007672"/>
<path d="M203.998 40.3179C202.94 45.2548 204.233 55.4812 213.99 59.1251C229.035 64.6497 243.376 60.0654 249.253 51.4846C252.897 46.0776 251.604 40.0828 252.309 35.0283C238.322 37.1441 220.572 39.3775 203.998 40.3179Z" fill="#007672"/>
<path d="M120.424 42.4338C117.955 44.197 115.84 46.0777 114.312 47.4883C117.25 49.4865 129.828 59.1253 124.773 73.4658C124.773 73.4658 126.066 77.6974 131.238 78.2851C131.356 78.4027 139.114 53.9533 120.424 42.4338Z" fill="#242853"/>
</svg>
